<svg width="24" height="24" viewBox="0 0 24 24" fill="none" xmlns="http://www.w3.org/2000/svg">
<path d="M12.0005 6.09529C13.0524 6.09529 13.9052 5.2425 13.9052 4.19053C13.9052 3.13856 13.0524 2.28577 12.0005 2.28577C10.9485 2.28577 10.0957 3.13856 10.0957 4.19053C10.0957 5.2425 10.9485 6.09529 12.0005 6.09529Z" fill="white"/>
<path d="M12.0005 13.9047C13.0524 13.9047 13.9052 13.0519 13.9052 12C13.9052 10.948 13.0524 10.0952 12.0005 10.0952C10.9485 10.0952 10.0957 10.948 10.0957 12C10.0957 13.0519 10.9485 13.9047 12.0005 13.9047Z" fill="white"/>
<path d="M12.0005 21.7143C13.0524 21.7143 13.9052 20.8615 13.9052 19.8095C13.9052 18.7576 13.0524 17.9048 12.0005 17.9048C10.9485 17.9048 10.0957 18.7576 10.0957 19.8095C10.0957 20.8615 10.9485 21.7143 12.0005 21.7143Z" fill="white"/>
</svg>
