<svg width="30" height="19" viewBox="0 0 30 19" fill="none" xmlns="http://www.w3.org/2000/svg">
<path d="M14.5146 1.55371C17.8307 1.38795 20.8464 2.33424 23.5977 4.15234L23.9512 4.39258C25.7006 5.61148 27.1682 7.10503 28.4473 8.76465V8.76562L28.5352 8.88672C28.7288 9.17714 28.848 9.51159 28.8486 9.875C28.8492 10.2387 28.7307 10.5736 28.5371 10.8643L28.4492 10.9863C26.9726 12.9018 25.2488 14.584 23.1562 15.8818L22.7334 16.1357C20.9618 17.1669 19.0593 17.8513 17.0059 18.1035L16.5928 18.1484C13.5782 18.4307 10.7791 17.794 8.18164 16.3887L7.66504 16.0977C5.39986 14.7701 3.5621 12.9959 2.00293 10.9639L2.00391 10.9629C1.90849 10.8387 1.84208 10.7145 1.79883 10.626C1.7412 10.508 1.73563 10.4875 1.70117 10.4219L1.61523 10.2588V9.44141L1.74805 9.24902L2.13281 8.66895C2.2044 8.5623 2.27912 8.4534 2.35645 8.34668L2.5957 8.03711C4.26667 6.02422 6.23676 4.32519 8.63086 3.12402L9.24902 2.83008C10.7026 2.17658 12.2322 1.75342 13.8467 1.60156L14.5146 1.55371ZM15.1289 6.83398C13.5199 6.9072 12.2258 8.17935 12.1348 9.71777L12.1299 9.87207C12.1193 11.5637 13.4997 12.9584 15.1904 12.9658L15.1924 12.9668C16.9152 12.9735 18.3239 11.5846 18.3359 9.90527L18.333 9.75C18.2612 8.14923 16.9155 6.83915 15.291 6.83105L15.1289 6.83398Z" fill="#080808" stroke="#5E5E5E" stroke-width="1.5"/>
</svg>
