<svg width="24" height="24" viewBox="0 0 24 24" fill="none" xmlns="http://www.w3.org/2000/svg">
<path d="M11.86 20.494C11.6516 20.4691 11.4433 20.4443 11.2386 20.4194C9.75822 20.2382 8.52642 19.5951 7.52855 18.5258C6.73172 17.6695 6.24558 16.6641 6.07013 15.5237C5.88006 14.298 6.07013 13.122 6.6513 12.0135C6.77558 11.7719 7.00586 11.6547 7.23614 11.7044C7.492 11.7577 7.64552 11.9318 7.65648 12.2196C7.67476 12.7951 7.86117 13.2996 8.32173 13.6727C8.93215 14.1665 9.61932 14.2766 10.3467 13.9605C11.0704 13.6407 11.4433 13.0758 11.4688 12.2978C11.4798 11.9318 11.4286 11.5801 11.2568 11.2532C10.9973 10.7594 10.566 10.4894 10.0068 10.4539C9.63029 10.429 9.3927 10.2869 9.22822 9.94582C8.75304 8.96881 8.78594 7.98825 9.15877 6.99702C9.54987 5.95606 10.2078 5.07498 10.9791 4.27205C11.1764 4.06599 11.3884 3.87414 11.5968 3.67519C11.7686 3.51176 11.9733 3.44781 12.2035 3.54373C12.4302 3.6361 12.5289 3.82085 12.5289 4.04467C12.5252 5.1638 12.9455 6.14791 13.5925 7.03966C14.1627 7.82482 14.7914 8.5709 15.4165 9.32054C16.1292 10.1768 16.8383 11.0365 17.3464 12.0313C17.7558 12.8342 17.997 13.6869 18.0007 14.5857C18.0116 17.229 16.2754 19.4743 13.757 20.2133C13.3001 20.3483 12.8103 20.3803 12.3351 20.462C12.2693 20.4727 12.2035 20.4869 12.1377 20.5011H11.8636L11.86 20.494Z" fill="white"/>
</svg>
