<svg width="24" height="24" viewBox="0 0 24 24" fill="none" xmlns="http://www.w3.org/2000/svg">
<g opacity="0.6" clip-path="url(#clip0_271_123)">
<path d="M17.5248 7.38117C17.2056 7.0618 16.8266 6.80845 16.4094 6.6356C15.9923 6.46275 15.5451 6.37378 15.0936 6.37378C14.642 6.37378 14.1949 6.46275 13.7777 6.6356C13.3606 6.80845 12.9816 7.0618 12.6623 7.38117L11.9998 8.04367L11.3373 7.38117C10.6925 6.73636 9.81798 6.37411 8.90608 6.37411C7.99418 6.37411 7.11964 6.73636 6.47483 7.38117C5.83002 8.02598 5.46777 8.90052 5.46777 9.81242C5.46777 10.7243 5.83002 11.5989 6.47483 12.2437L11.9998 17.7687L17.5248 12.2437C17.8442 11.9244 18.0976 11.5454 18.2704 11.1283C18.4433 10.7111 18.5322 10.264 18.5322 9.81242C18.5322 9.36087 18.4433 8.91373 18.2704 8.49657C18.0976 8.07941 17.8442 7.70039 17.5248 7.38117Z" stroke="white" stroke-width="2" stroke-linecap="round" stroke-linejoin="round"/>
</g>
<defs>
<clipPath id="clip0_271_123">
<rect width="15" height="15" fill="white" transform="translate(4.5 4.5)"/>
</clipPath>
</defs>
</svg>
