<svg width="23" height="20" viewBox="0 0 23 20" fill="none" xmlns="http://www.w3.org/2000/svg">
<path d="M19.9384 2.71575C19.4436 2.22073 18.8562 1.82804 18.2096 1.56012C17.563 1.2922 16.8699 1.1543 16.17 1.1543C15.4701 1.1543 14.777 1.2922 14.1304 1.56012C13.4838 1.82804 12.8964 2.22073 12.4016 2.71575L11.3747 3.74263L10.3478 2.71575C9.34836 1.7163 7.99281 1.15481 6.57938 1.15481C5.16594 1.15481 3.81039 1.7163 2.81094 2.71575C1.81149 3.7152 1.25 5.07075 1.25 6.48419C1.25 7.89763 1.81149 9.25318 2.81094 10.2526L11.3747 18.8164L19.9384 10.2526C20.4335 9.75783 20.8262 9.17035 21.0941 8.52375C21.362 7.87715 21.4999 7.1841 21.4999 6.48419C21.4999 5.78428 21.362 5.09123 21.0941 4.44463C20.8262 3.79803 20.4335 3.21055 19.9384 2.71575Z" fill="#080808" stroke="#5E5E5E" stroke-width="1.5" stroke-linecap="round" stroke-linejoin="round"/>
</svg>
