<svg width="12" height="11" viewBox="0 0 12 11" fill="none" xmlns="http://www.w3.org/2000/svg">
<path d="M11.0727 1.19906C10.8014 0.927589 10.4792 0.712243 10.1246 0.565319C9.77004 0.418395 9.38998 0.342773 9.00616 0.342773C8.62233 0.342773 8.24227 0.418395 7.88769 0.565319C7.5331 0.712243 7.21093 0.927589 6.93959 1.19906L6.37647 1.76218L5.81334 1.19906C5.26526 0.650969 4.52189 0.343058 3.74678 0.343058C2.97167 0.343058 2.2283 0.650969 1.68022 1.19906C1.13213 1.74714 0.824219 2.49051 0.824219 3.26562C0.824219 4.04073 1.13213 4.78409 1.68022 5.33218L6.37647 10.0284L11.0727 5.33218C11.3442 5.06084 11.5595 4.73868 11.7065 4.38409C11.8534 4.0295 11.929 3.64944 11.929 3.26562C11.929 2.8818 11.8534 2.50174 11.7065 2.14715C11.5595 1.79256 11.3442 1.47039 11.0727 1.19906Z" fill="white"/>
</svg>
