<svg width="24" height="24" viewBox="0 0 24 24" fill="none" xmlns="http://www.w3.org/2000/svg">
<path d="M18.2613 6.76549C17.8996 6.40353 17.47 6.11641 16.9972 5.92051C16.5244 5.72461 16.0177 5.62378 15.5059 5.62378C14.9942 5.62378 14.4874 5.72461 14.0146 5.92051C13.5419 6.11641 13.1123 6.40353 12.7505 6.76549L11.9997 7.51632L11.2488 6.76549C10.5181 6.03471 9.52691 5.62416 8.49343 5.62416C7.45995 5.62416 6.46879 6.03471 5.73801 6.76549C5.00723 7.49627 4.59668 8.48742 4.59668 9.52091C4.59668 10.5544 5.00723 11.5455 5.73801 12.2763L11.9997 18.538L18.2613 12.2763C18.6233 11.9145 18.9104 11.485 19.1063 11.0122C19.3022 10.5394 19.4031 10.0327 19.4031 9.52091C19.4031 9.00914 19.3022 8.5024 19.1063 8.02961C18.9104 7.55683 18.6233 7.12727 18.2613 6.76549Z" fill="white"/>
</svg>
