<svg viewBox="6 8 36 32" fill="none" xmlns="http://www.w3.org/2000/svg">
<path d="M37.6284 12.6071C36.841 11.8193 35.9061 11.1944 34.8771 10.768C33.8481 10.3416 32.7452 10.1222 31.6314 10.1222C30.5175 10.1222 29.4146 10.3416 28.3856 10.768C27.3566 11.1944 26.4217 11.8193 25.6343 12.6071L24.0001 14.2413L22.3659 12.6071C20.7754 11.0166 18.6182 10.123 16.3689 10.123C14.1195 10.123 11.9623 11.0166 10.3718 12.6071C8.78124 14.1976 7.8877 16.3548 7.8877 18.6042C7.8877 20.8535 8.78124 23.0107 10.3718 24.6013L24.0001 38.2296L37.6284 24.6013C38.4162 23.8138 39.0411 22.8789 39.4675 21.8499C39.8939 20.8209 40.1133 19.718 40.1133 18.6042C40.1133 17.4903 39.8939 16.3874 39.4675 15.3584C39.0411 14.3294 38.4162 13.3945 37.6284 12.6071Z" fill="white"/>
</svg>
