<svg width="17" height="16" viewBox="0 0 17 16" fill="none" xmlns="http://www.w3.org/2000/svg">
<path fill-rule="evenodd" clip-rule="evenodd" d="M16.5 7.875C16.5 9.96358 15.6703 11.9666 14.1935 13.4435C12.7166 14.9203 10.7136 15.75 8.625 15.75C6.53642 15.75 4.53338 14.9203 3.05653 13.4435C1.57969 11.9666 0.75 9.96358 0.75 7.875C0.75 5.78642 1.57969 3.78338 3.05653 2.30653C4.53338 0.829685 6.53642 0 8.625 0C10.7136 0 12.7166 0.829685 14.1935 2.30653C15.6703 3.78338 16.5 5.78642 16.5 7.875ZM9.60938 3.9375C9.60938 4.19857 9.50566 4.44895 9.32106 4.63356C9.13645 4.81816 8.88607 4.92188 8.625 4.92188C8.36393 4.92188 8.11355 4.81816 7.92894 4.63356C7.74434 4.44895 7.64062 4.19857 7.64062 3.9375C7.64062 3.67643 7.74434 3.42605 7.92894 3.24144C8.11355 3.05684 8.36393 2.95312 8.625 2.95312C8.88607 2.95312 9.13645 3.05684 9.32106 3.24144C9.50566 3.42605 9.60938 3.67643 9.60938 3.9375ZM7.64062 6.89062C7.44482 6.89062 7.25704 6.96841 7.11858 7.10686C6.98013 7.24532 6.90234 7.4331 6.90234 7.62891C6.90234 7.82471 6.98013 8.0125 7.11858 8.15095C7.25704 8.2894 7.44482 8.36719 7.64062 8.36719H7.88967C7.9265 8.3672 7.96285 8.37548 7.99605 8.39141C8.02925 8.40734 8.05845 8.43052 8.0815 8.45924C8.10455 8.48796 8.12086 8.52148 8.12923 8.55734C8.1376 8.5932 8.13781 8.63048 8.12986 8.66644L7.67803 10.7002C7.622 10.9521 7.62327 11.2133 7.68176 11.4647C7.74025 11.716 7.85446 11.951 8.01596 12.1523C8.17745 12.3536 8.3821 12.516 8.61479 12.6275C8.84749 12.7391 9.10227 12.797 9.36033 12.7969H9.60938C9.80518 12.7969 9.99296 12.7191 10.1314 12.5806C10.2699 12.4422 10.3477 12.2544 10.3477 12.0586C10.3477 11.8628 10.2699 11.675 10.1314 11.5366C9.99296 11.3981 9.80518 11.3203 9.60938 11.3203H9.36033C9.3235 11.3203 9.28715 11.312 9.25395 11.2961C9.22075 11.2802 9.19155 11.257 9.1685 11.2283C9.14545 11.1995 9.12914 11.166 9.12077 11.1302C9.1124 11.0943 9.11219 11.057 9.12014 11.0211L9.57197 8.98734C9.628 8.73544 9.62673 8.47417 9.56824 8.22283C9.50975 7.97149 9.39554 7.7365 9.23404 7.53522C9.07255 7.33395 8.8679 7.17152 8.63521 7.05995C8.40251 6.94838 8.14773 6.89051 7.88967 6.89062H7.64062Z" fill="#5E5E5E"/>
</svg>
