<svg width="18" height="22" viewBox="0 0 18 22" fill="none" xmlns="http://www.w3.org/2000/svg">
<path d="M17.625 9.09568C17.625 15.7098 9.1875 21.3791 9.1875 21.3791C9.1875 21.3791 0.75 15.7098 0.75 9.09568C0.75 6.84031 1.63895 4.67732 3.22129 3.08253C4.80362 1.48774 6.94974 0.591797 9.1875 0.591797C11.4253 0.591797 13.5714 1.48774 15.1537 3.08253C16.7361 4.67732 17.625 6.84031 17.625 9.09568Z" fill="#5E5E5E"/>
<path d="M9.375 12.3774C11.239 12.3774 12.75 10.8934 12.75 9.06273C12.75 7.23208 11.239 5.74805 9.375 5.74805C7.51104 5.74805 6 7.23208 6 9.06273C6 10.8934 7.51104 12.3774 9.375 12.3774Z" fill="#080808"/>
</svg>
