<svg width="24" height="24" viewBox="0 0 24 24" fill="none" xmlns="http://www.w3.org/2000/svg">
<path d="M11.8348 22.6363C11.4609 22.4829 11.3163 22.2061 11.3304 21.8042C11.3516 21.2578 11.3357 20.7113 11.3357 20.1631V19.9463C9.39767 19.763 7.73472 18.9997 6.37156 17.6389C5.00663 16.2763 4.23953 14.6158 4.0526 12.6627C3.97853 12.6627 3.90447 12.6627 3.83217 12.6627C3.24317 12.6627 2.65593 12.6627 2.06694 12.6627C1.65781 12.6627 1.36684 12.3877 1.36331 12.0087C1.35979 11.6156 1.65076 11.3354 2.0687 11.3354C2.65064 11.3354 3.23259 11.3354 3.81277 11.3354C3.88683 11.3354 3.96266 11.3354 4.0526 11.3354C4.236 9.39987 4.99782 7.73761 6.35921 6.37325C7.72237 5.00713 9.3818 4.24034 11.3375 4.05349V3.83491C11.3375 3.24616 11.3375 2.65741 11.3375 2.07041C11.3375 1.65088 11.6161 1.36003 12.0094 1.36356C12.3903 1.36708 12.6636 1.65793 12.6636 2.06689C12.6636 2.64859 12.6636 3.23029 12.6636 3.812C12.6636 3.88603 12.6636 3.96183 12.6636 4.05349C14.5981 4.23682 16.2611 4.99832 17.626 6.35739C18.9909 7.71998 19.7598 9.37872 19.9467 11.3354H20.1636C20.7103 11.3354 21.2587 11.3512 21.8037 11.3301C22.2075 11.3142 22.4826 11.4623 22.636 11.8342V12.1674C22.4826 12.5411 22.2057 12.6856 21.8037 12.6715C21.257 12.6504 20.7103 12.6662 20.1636 12.6662H19.945C19.7563 14.6211 18.9892 16.2816 17.6242 17.6424C16.2611 19.0033 14.5981 19.7648 12.6601 19.9481C12.6601 20.5756 12.6442 21.1908 12.6654 21.8042C12.6795 22.2079 12.5349 22.4829 12.161 22.6363H11.8277H11.8348ZM18.6488 11.9717C18.5783 8.18182 15.5698 5.33853 11.9723 5.3632C8.18087 5.39141 5.3364 8.43213 5.36285 12.0281C5.39107 15.818 8.43305 18.663 12.0305 18.6366C15.822 18.6084 18.6312 15.5677 18.6488 11.9717Z" fill="#57F98E" stroke="#57F98E" stroke-width="0.4"/>
<path d="M15.545 12.0055C15.545 13.9675 13.951 15.5502 11.9855 15.5455C10.034 15.5408 8.45254 13.9518 8.4541 11.9946C8.4541 10.0326 10.0481 8.4499 12.0137 8.4546C13.9651 8.4593 15.5466 10.0483 15.545 12.0055ZM14.3616 12.004C14.3648 10.7158 13.2927 9.64085 12.0011 9.63772C10.7127 9.63459 9.63749 10.7064 9.63592 11.9977C9.63279 13.2858 10.7049 14.3608 11.9964 14.3639C13.2848 14.3671 14.3601 13.2952 14.3616 12.004Z" fill="#57F98E" stroke="#57F98E" stroke-width="0.4"/>
</svg>
