<svg width="24" height="24" viewBox="0 0 24 24" fill="none" xmlns="http://www.w3.org/2000/svg">
<path d="M6 22.5C5.45 22.5 4.97933 22.3043 4.588 21.913C4.19667 21.5217 4.00067 21.0507 4 20.5V10.5C4 9.95 4.196 9.47933 4.588 9.088C4.98 8.69667 5.45067 8.50067 6 8.5H7V6.5C7 5.11667 7.48767 3.93767 8.463 2.963C9.43833 1.98833 10.6173 1.50067 12 1.5C13.3827 1.49933 14.562 1.987 15.538 2.963C16.514 3.939 17.0013 5.118 17 6.5V8.5H18C18.55 8.5 19.021 8.696 19.413 9.088C19.805 9.48 20.0007 9.95067 20 10.5V20.5C20 21.05 19.8043 21.521 19.413 21.913C19.0217 22.305 18.5507 22.5007 18 22.5H6ZM12 17.5C12.55 17.5 13.021 17.3043 13.413 16.913C13.805 16.5217 14.0007 16.0507 14 15.5C13.9993 14.9493 13.8037 14.4787 13.413 14.088C13.0223 13.6973 12.5513 13.5013 12 13.5C11.4487 13.4987 10.978 13.6947 10.588 14.088C10.198 14.4813 10.002 14.952 10 15.5C9.998 16.048 10.194 16.519 10.588 16.913C10.982 17.307 11.4527 17.5027 12 17.5ZM9 8.5H15V6.5C15 5.66667 14.7083 4.95833 14.125 4.375C13.5417 3.79167 12.8333 3.5 12 3.5C11.1667 3.5 10.4583 3.79167 9.875 4.375C9.29167 4.95833 9 5.66667 9 6.5V8.5Z" fill="white" fill-opacity="0.2"/>
</svg>
