<svg width="32" height="32" viewBox="0 0 48 48" fill="none" xmlns="http://www.w3.org/2000/svg">
<path d="M23.9998 7.0011C25.0681 7.0011 26.1364 6.99969 27.2046 7.0011C28.4081 7.00252 29.0602 7.62733 29.0632 8.77777C29.0632 9.39691 29.0782 10.0146 29.0572 10.6324C29.0467 10.9214 29.1338 11.0645 29.4388 11.1722C30.9398 11.6978 32.3101 12.4473 33.5722 13.3795C33.7089 13.4801 34.0259 13.4901 34.1882 13.4135C34.8057 13.1203 35.3872 12.7632 35.9927 12.4473C36.9528 11.9457 37.8889 12.1767 38.4463 13.0763C39.5416 14.8431 40.6279 16.6141 41.7007 18.3936C42.2776 19.3514 42.0087 20.2114 40.996 20.7767C40.416 21.0997 39.8151 21.3916 39.2561 21.7415C39.1029 21.8379 38.9556 22.1099 38.9857 22.2728C39.2606 23.7505 39.2787 25.2212 38.9722 26.6932C38.9166 26.9624 38.9646 27.1466 39.2621 27.2897C39.8616 27.5773 40.4386 27.9074 41.017 28.2319C42.0207 28.7943 42.2731 29.6586 41.6902 30.6249C40.6264 32.3888 39.5506 34.1456 38.4673 35.8968C37.8859 36.8375 36.9453 37.0571 35.9266 36.5131C35.3572 36.2085 34.7832 35.9095 34.2288 35.5822C33.9689 35.4278 33.7886 35.4193 33.5391 35.6134C32.3191 36.5669 30.9519 37.2923 29.4689 37.8137C29.1474 37.927 29.0452 38.0772 29.0572 38.3875C29.0812 39.0407 29.0692 39.6952 29.0632 40.3484C29.0542 41.3217 28.3661 41.9904 27.3504 41.9947C25.1207 42.0018 22.891 42.0018 20.6613 41.9947C19.6426 41.9919 18.9545 41.3231 18.9454 40.3512C18.9394 39.6981 18.9274 39.0435 18.9514 38.3903C18.9635 38.0801 18.8628 37.9228 18.5428 37.8109C17.0583 37.2923 15.691 36.5683 14.4725 35.6134C14.2186 35.4151 14.0413 35.4349 13.7844 35.5851C13.2119 35.9194 12.6245 36.2311 12.037 36.54C11.0528 37.0571 10.1138 36.8219 9.54284 35.8982C8.45955 34.1456 7.38526 32.3888 6.32 30.6263C5.73853 29.6643 5.98494 28.8043 6.99161 28.2361C7.57007 27.9103 8.14703 27.5816 8.74502 27.2911C9.03951 27.148 9.0936 26.9653 9.0365 26.6946C8.7315 25.241 8.7315 23.7845 9.032 22.3295C9.0936 22.0348 9.032 21.8449 8.72098 21.6919C8.10796 21.3901 7.51298 21.0544 6.924 20.7129C5.99997 20.1816 5.74154 19.3259 6.27342 18.4404C7.36122 16.6297 8.46856 14.8289 9.58642 13.0353C10.1123 12.1894 11.0468 11.9571 11.9573 12.4218C12.5824 12.7406 13.1969 13.0792 13.8039 13.4263C14.0383 13.5595 14.2096 13.585 14.444 13.4022C15.679 12.4374 17.0613 11.7035 18.5638 11.1778C18.8628 11.073 18.959 10.9313 18.9499 10.638C18.9274 9.96788 18.9379 9.2949 18.9439 8.62334C18.9529 7.66133 19.6531 7.00819 20.6838 7.00252C21.7897 6.99685 22.8955 7.00252 23.9998 7.00252V7.0011ZM24.0133 29.269C26.7629 29.2605 29.0587 27.0928 29.0602 24.5014C29.0617 21.9087 26.7734 19.7424 24.0194 19.7296C21.2563 19.7169 18.9259 21.9172 18.9439 24.5227C18.962 27.1169 21.2698 29.2775 24.0133 29.269Z" stroke="white" stroke-width="2.5"/>
</svg>
