<svg width="32" height="32" viewBox="0 0 48 48" fill="none" xmlns="http://www.w3.org/2000/svg">
<path d="M36.8541 17.4795C36.8269 20.4071 35.9687 22.9142 34.2832 25.1411C31.5803 28.7111 28.8813 32.281 26.1822 35.851C24.9784 37.4433 23.1531 37.4316 21.9337 35.8393C19.2153 32.2849 16.5007 28.7227 13.7667 25.18C10.0541 20.3604 10.4308 13.5903 14.6366 9.19886C16.524 7.22116 18.7298 5.81186 21.4172 5.2824C25.992 4.38699 29.9415 5.62499 33.2386 8.93802C35.2657 10.9702 36.4269 13.4268 36.7803 16.2726C36.8347 16.7164 36.8386 17.168 36.8541 17.4795ZM34.6327 17.6352C34.5589 17.0123 34.524 16.3777 34.4114 15.7626C33.9842 13.4307 32.8075 11.5191 31.0483 9.9619C28.5162 7.71559 25.5687 6.87468 22.2405 7.43139C19.8949 7.8207 17.9803 8.99252 16.3376 10.6899C12.8269 14.3105 12.4968 19.7959 15.5687 23.8019C18.2832 27.3446 20.9939 30.8912 23.7046 34.4339C24.0463 34.8777 24.0852 34.8816 24.423 34.4339C27.1221 30.8639 29.825 27.294 32.524 23.724C33.8832 21.9254 34.5745 19.8971 34.6327 17.6352Z" fill="white"/>
<path d="M23.9961 42.0021C20.2524 41.9204 16.5475 41.6128 12.9203 40.659C11.5961 40.3125 10.3068 39.8609 9.12617 39.1485C8.2485 38.619 7.47569 37.9767 7.13394 36.9645C6.74559 35.816 7.21549 34.6014 8.36501 33.6943C9.59607 32.7288 11.0407 32.2149 12.5126 31.7672C12.8194 31.6738 13.1262 31.5842 13.4407 31.518C14.0737 31.3896 14.6602 31.7477 14.8077 32.3356C14.9592 32.9312 14.6252 33.4957 14 33.706C13.0252 34.033 12.0349 34.325 11.0796 34.7104C10.5592 34.9206 10.0737 35.2554 9.62714 35.6058C9.12229 36.0029 9.1184 36.3494 9.64268 36.727C10.2291 37.1436 10.8582 37.5212 11.5184 37.8015C13.3941 38.5996 15.3825 38.9577 17.3864 39.238C20.0776 39.6157 22.7844 39.7364 25.4951 39.6507C28.9203 39.5417 32.3223 39.2186 35.5961 38.1285C36.4349 37.8482 37.2504 37.455 38.0077 36.9956C38.9786 36.4078 38.9553 35.9406 38.0077 35.2982C36.8466 34.5118 35.5262 34.1108 34.1825 33.7644C33.6699 33.632 33.2815 33.3828 33.1883 32.8222C33.0524 32.0241 33.6893 31.3312 34.4893 31.5219C36.3689 31.9657 38.2097 32.5341 39.7398 33.7916C40.5126 34.4262 41.033 35.2204 40.9864 36.2832C40.9475 37.1825 40.4854 37.8677 39.8369 38.4439C38.7922 39.3743 37.5223 39.8921 36.2213 40.3203C33.9456 41.0639 31.5961 41.4766 29.2155 41.6712C27.4757 41.8153 25.732 41.897 23.9922 42.0021H23.9961Z" fill="white"/>
<path d="M18.4004 17.6976C18.4159 14.6026 20.9285 12.0838 24.0004 12.0877C27.1111 12.0877 29.6043 14.6337 29.5887 17.7871C29.5732 20.8354 27.0295 23.3504 23.9771 23.3348C20.9014 23.3192 18.3849 20.777 18.4043 17.6976H18.4004ZM27.3324 17.7132C27.3324 15.8523 25.8217 14.3379 23.981 14.3495C22.1518 14.3612 20.6684 15.8678 20.6645 17.7093C20.6645 19.5663 22.1829 21.0885 24.0198 21.0729C25.8489 21.0573 27.3324 19.5546 27.3363 17.7132H27.3324Z" fill="white"/>
</svg>
