<svg width="32" height="32" viewBox="0 0 48 48" fill="none" xmlns="http://www.w3.org/2000/svg">
<path d="M42.0007 25.1623C41.954 25.2423 41.9065 25.3223 41.8625 25.4032C41.4688 26.1235 40.6411 26.2462 40.0097 25.6597C39.4787 25.1659 38.9653 24.6512 38.444 24.1465C38.3172 24.0237 38.1895 23.9028 37.9861 23.7091C37.9861 23.9319 37.9861 24.0674 37.9861 24.2038C37.9861 29.1644 37.9853 34.1259 37.9879 39.0865C37.9879 39.503 37.9315 39.9149 37.596 40.1623C37.3644 40.3332 37.0483 40.4687 36.7683 40.4714C33.9214 40.4933 31.0736 40.4878 28.2266 40.4833C27.4949 40.4824 27.0282 39.9886 27.0273 39.2247C27.0229 36.9013 27.0255 34.5788 27.0255 32.2553C27.0255 32.1253 27.0255 31.9943 27.0255 31.847H21.2515C21.2515 31.9825 21.2515 32.1226 21.2515 32.2617C21.2515 34.5242 21.2515 36.7867 21.2515 39.0501C21.2515 40.0422 20.8218 40.4869 19.862 40.4869C17.1674 40.4869 14.4719 40.4624 11.7773 40.5005C10.8017 40.5142 10.3173 39.9531 10.3209 39.0037C10.3402 33.994 10.3297 28.9852 10.3297 23.9755C10.3297 23.8346 10.3297 23.6927 10.3297 23.4545C10.172 23.6 10.0805 23.6827 9.99152 23.7673C9.31875 24.4057 8.65127 25.0513 7.97234 25.6815C7.58224 26.0434 7.13402 26.1471 6.64266 25.8998C6.20501 25.6797 5.96461 25.2268 6.00424 24.7085C6.03506 24.3029 6.2781 24.031 6.5502 23.7727C8.60548 21.8267 10.6581 19.877 12.7108 17.9292C16.1371 14.6791 19.5626 11.4299 22.988 8.17984C23.0831 8.08981 23.1774 7.99979 23.2742 7.91158C23.8827 7.35868 24.463 7.35959 25.0521 7.92795C27.6719 10.456 30.2881 12.9877 32.9061 15.5166C35.6693 18.1865 38.4361 20.8528 41.1923 23.5309C41.4926 23.8228 41.7321 24.1811 42.0007 24.5084V25.1623ZM35.6693 38.0844V37.657C35.6693 32.3817 35.6676 27.1074 35.6755 21.8322C35.6755 21.563 35.5927 21.3884 35.4078 21.2102C31.7005 17.6354 27.9977 14.0543 24.2939 10.4751C24.2464 10.4287 24.1883 10.3951 24.1354 10.355C24.0729 10.4096 24.0271 10.4478 23.9849 10.4878C20.275 14.0071 16.5642 17.5245 12.8649 21.0547C12.7363 21.1774 12.6694 21.4311 12.6694 21.6239C12.6588 26.971 12.6614 32.319 12.6614 37.6661V38.0734H18.9374C18.9374 37.9261 18.9374 37.7961 18.9374 37.6661C18.9374 35.3672 18.9356 33.0683 18.9382 30.7703C18.9391 29.8837 19.3706 29.4317 20.2345 29.4299C22.8348 29.4245 25.4361 29.4245 28.0373 29.4299C28.9126 29.4317 29.345 29.8946 29.345 30.8012C29.3459 33.1001 29.345 35.399 29.345 37.697V38.0834H35.6711L35.6693 38.0844Z" fill="#5E5E5E"/>
</svg>
