<svg viewBox="6 4 36 40" fill="none" xmlns="http://www.w3.org/2000/svg">
<path d="M34.9984 5.99988C35.5038 6.13809 36.029 6.22524 36.5102 6.42418C38.7255 7.33882 40.0539 9.00963 40.4267 11.4296C40.9312 14.6973 38.7806 17.9201 35.4401 18.5451C33.3368 18.9386 31.5064 18.3127 29.9714 16.7906C29.8569 16.6771 29.7536 16.5521 29.6339 16.42C29.4979 16.4975 29.3799 16.5618 29.2654 16.6322C26.0902 18.5865 22.9177 20.5451 19.7365 22.4906C19.4911 22.6411 19.4403 22.7653 19.5367 23.0381C19.9267 24.1438 19.9956 25.2724 19.7003 26.4159C19.6685 26.5382 19.6495 26.6641 19.6202 26.8085C19.8174 26.9141 20.0077 27.0171 20.1988 27.1175C23.1389 28.6571 26.0816 30.1924 29.0174 31.7408C29.2637 31.8702 29.3877 31.8676 29.5788 31.6361C30.9494 29.9776 32.7109 29.2135 34.828 29.349C37.6166 29.5277 40.047 31.9195 40.437 34.74C40.8985 38.0755 38.7289 41.2058 35.4969 41.8793C32.0936 42.5888 28.6352 40.0879 28.1866 36.5772C28.0782 35.726 28.116 34.8967 28.3537 34.0798C28.4174 33.8606 28.3614 33.777 28.1763 33.6801C25.1019 32.0762 22.03 30.4661 18.9608 28.8508C18.7757 28.7531 18.6749 28.7628 18.5355 28.9397C17.1665 30.6757 15.3801 31.5137 13.2096 31.3544C10.2351 31.1361 7.97597 28.7953 7.56702 25.9722C7.12019 22.885 8.95314 19.9676 11.709 19.0609C14.074 18.2827 16.1722 18.8109 17.9862 20.5372C18.0783 20.6252 18.1618 20.7212 18.2513 20.8127C18.2668 20.8286 18.2901 20.8374 18.3452 20.8708C21.7253 18.7916 25.1217 16.7008 28.5413 14.5969C28.2357 13.7483 28.1014 12.883 28.1246 11.9842C28.1996 9.13728 30.568 6.43915 33.3291 6.07382C33.4289 6.06062 33.5254 6.02453 33.6235 5.99988C34.0815 5.99988 34.5404 5.99988 34.9984 5.99988Z" fill="white"/>
</svg>
