<svg width="24" height="24" viewBox="0 0 24 24" fill="none" xmlns="http://www.w3.org/2000/svg">
<path d="M21.4988 14.3665C21.2169 14.8259 21.0103 14.9009 20.489 14.7314C20.148 14.6239 19.8103 14.5131 19.4693 14.4023C19.0824 14.2752 18.8956 13.9396 19.0136 13.5877C19.1316 13.2358 19.4792 13.0728 19.866 13.1967C20.1874 13.2977 20.5054 13.4182 20.8333 13.5062C21.1251 13.5844 21.3644 13.718 21.4988 13.9983V14.3665Z" fill="white"/>
<path d="M19.1322 9.54709C19.1387 9.97721 18.9617 10.3291 18.6568 10.6257C17.9486 11.3099 17.2404 12.0007 16.5322 12.6818C16.4535 12.7567 16.4273 12.8219 16.4502 12.9359C16.624 13.907 16.7847 14.8813 16.9519 15.8523C17.0568 16.4519 16.8699 16.9504 16.3847 17.3154C15.8961 17.6803 15.3584 17.7194 14.8142 17.4425C13.9486 16.9993 13.0863 16.5464 12.2273 16.0869C12.0699 16.0022 11.9519 16.0022 11.7912 16.0869C10.9551 16.5366 10.1092 16.9635 9.27318 17.4131C8.27317 17.9508 7.20104 17.3219 7.06662 16.403C7.02072 16.0967 7.08301 15.7676 7.13219 15.458C7.26662 14.5978 7.42727 13.7441 7.56498 12.8838C7.57481 12.8252 7.52891 12.7372 7.47973 12.6883C6.77154 11.9942 6.0535 11.3067 5.34531 10.6126C4.68301 9.96418 4.72891 8.94427 5.43711 8.37729C5.75186 8.12312 6.13219 8.0775 6.51252 8.02537C7.39121 7.90154 8.27318 7.77772 9.14859 7.64412C9.22072 7.63435 9.30596 7.55288 9.34203 7.48446C9.79121 6.59814 10.2273 5.70205 10.6732 4.81574C11.1191 3.93268 12.2437 3.70133 12.9748 4.34977C13.1387 4.4964 13.2699 4.69843 13.3715 4.89394C13.8109 5.75093 14.2371 6.61769 14.6601 7.4812C14.7158 7.5985 14.7945 7.63761 14.9125 7.6539C15.9191 7.79727 16.9289 7.93413 17.9322 8.09706C18.6437 8.2111 19.1322 8.82044 19.1322 9.54383V9.54709Z" fill="white"/>
<path d="M3.27888 14.816C2.83625 14.816 2.5838 14.614 2.51822 14.3305C2.44937 14.0437 2.59035 13.7212 2.8756 13.6169C3.33789 13.4474 3.80347 13.2943 4.27888 13.1607C4.56084 13.0792 4.87232 13.2682 4.9838 13.5419C5.09527 13.8124 5.02642 14.1708 4.76084 14.2849C4.23953 14.5065 3.69199 14.6726 3.28216 14.816H3.27888Z" fill="white"/>
<path d="M7.62994 4.63658C7.61027 4.95592 7.4824 5.15143 7.23322 5.25896C6.99715 5.35997 6.69551 5.31435 6.53814 5.11232C6.2365 4.73108 5.94797 4.34006 5.67912 3.936C5.50535 3.67532 5.60043 3.3234 5.85617 3.13115C6.10535 2.94216 6.4824 2.95193 6.67912 3.19632C6.99059 3.57757 7.26928 3.98162 7.55125 4.38568C7.60699 4.46714 7.61355 4.57793 7.62994 4.63658Z" fill="white"/>
<path d="M17.0299 5.30453C16.5086 5.29802 16.2004 4.76362 16.4693 4.35305C16.7217 3.96855 17.0004 3.59708 17.2857 3.23538C17.4988 2.96493 17.8824 2.93234 18.1512 3.13437C18.4201 3.33965 18.4955 3.70461 18.2988 3.9881C18.043 4.35631 17.7742 4.718 17.5053 5.07644C17.384 5.23611 17.2102 5.31105 17.0299 5.30453Z" fill="white"/>
<path d="M11.3716 19.7495C11.3716 19.5214 11.3683 19.2966 11.3716 19.0685C11.3814 18.7264 11.6667 18.4592 12.0109 18.4624C12.3453 18.4657 12.6273 18.7329 12.6339 19.0653C12.6404 19.5117 12.6404 19.9613 12.6339 20.4078C12.6273 20.7434 12.3486 21.0008 12.0076 21.0008C11.6667 21.0008 11.388 20.7434 11.3749 20.411C11.3683 20.1894 11.3749 19.9679 11.3749 19.7495H11.3716Z" fill="white"/>
</svg>
