<svg width="27" height="18" viewBox="0 0 27 18" fill="none" xmlns="http://www.w3.org/2000/svg">
<path d="M15.6875 0.90625C17.2408 0.90625 18.5 2.16545 18.5 3.71875V7.41699L24.5332 3.1084C24.7617 2.94537 25.0619 2.92347 25.3115 3.05176C25.5613 3.18031 25.7188 3.43781 25.7188 3.71875V14.0312C25.7188 14.3122 25.5613 14.5697 25.3115 14.6982C25.0619 14.8265 24.7617 14.8046 24.5332 14.6416L18.5 10.332V14.0312C18.5 15.5846 17.2408 16.8438 15.6875 16.8438H4.34375C2.79045 16.8438 1.53125 15.5846 1.53125 14.0312V3.71875C1.53125 2.16545 2.79045 0.90625 4.34375 0.90625H15.6875Z" fill="#080808" stroke="#5E5E5E" stroke-width="1.5" stroke-linecap="round" stroke-linejoin="round"/>
</svg>
