<svg viewBox="0 0 28 24" fill="none" xmlns="http://www.w3.org/2000/svg">
<path d="M0.924102 6.94812C1.13926 6.52725 1.49138 6.40638 1.94734 6.41013C3.68671 6.42517 5.42671 6.41264 7.16671 6.42078C7.38186 6.42203 7.54448 6.35377 7.71147 6.23039C9.52652 4.89136 11.3441 3.55672 13.1623 2.22208C13.5994 1.90142 14.0423 1.92522 14.2993 2.31164C14.3975 2.45945 14.4519 2.6655 14.4526 2.84588C14.4619 5.52204 14.4588 8.19821 14.4588 10.8744C14.4588 14.2927 14.4576 17.7104 14.4613 21.1287C14.4613 21.3736 14.4169 21.5916 14.2443 21.7707C13.9835 22.0406 13.6126 22.0801 13.2655 21.8471C12.9133 21.611 12.5775 21.3505 12.2353 21.0987C10.7193 19.9851 9.20254 18.8728 7.69021 17.7549C7.52821 17.6353 7.36935 17.5795 7.16545 17.5808C5.42546 17.5883 3.68608 17.5764 1.94609 17.5908C1.49013 17.5946 1.13801 17.4731 0.922852 17.0528V6.94812H0.924102ZM12.9527 4.26193C12.857 4.32707 12.7951 4.36653 12.7363 4.41037C11.2747 5.48447 9.80985 6.55481 8.35318 7.6358C8.06547 7.84937 7.76526 7.94707 7.4075 7.94519C5.85139 7.93579 4.29465 7.94081 2.73853 7.94081H2.44207V16.0595H2.76042C4.30027 16.0595 5.84013 16.0658 7.37936 16.0551C7.75463 16.0526 8.06798 16.1528 8.37069 16.3777C9.81923 17.4555 11.2778 18.5196 12.7338 19.5881C12.7976 19.6344 12.8658 19.6745 12.9527 19.7302V4.26193Z" fill="white" stroke="white" stroke-width="0.8" stroke-linejoin="bevel"/>
<path d="M25.6044 12.2405C25.5569 12.6374 25.5186 13.2737 25.4001 13.8962C24.8408 16.8405 23.2803 19.1749 20.7345 20.8748C20.1579 21.2597 19.5116 21.5486 18.8961 21.8787C18.5128 22.084 18.3603 22.4732 18.5319 22.8235C18.7122 23.1924 19.1325 23.3524 19.527 23.1816C21.5697 22.2977 23.2759 21.0007 24.6031 19.2555C25.9322 17.5084 26.7298 15.5561 26.9903 13.3954C27.1637 11.9593 27.0792 10.5418 26.7248 9.14213C26.0551 6.49801 24.6278 4.30512 22.4642 2.56406C21.5759 1.84901 20.5943 1.27721 19.5394 0.822402C19.1381 0.64931 18.7202 0.79614 18.5393 1.16083C18.3628 1.51775 18.5029 1.9093 18.8832 2.11104C18.9912 2.16834 19.1029 2.21788 19.214 2.26861C20.2178 2.72223 21.1302 3.30895 21.9425 4.03713C24.3408 6.18525 25.5229 8.85743 25.6044 12.2405ZM22.329 12.0608C22.3086 10.9906 22.1222 10.0165 21.7197 9.08185C21.2604 8.01644 20.5832 7.10145 19.7017 6.3285C19.2714 5.95069 18.6264 6.16198 18.4875 6.7105C18.401 7.0525 18.5825 7.28647 18.8177 7.50314C19.848 8.45216 20.4974 9.60053 20.7345 10.9602C21.0048 12.5109 20.7203 13.9648 19.8363 15.2821C19.5091 15.7697 19.0708 16.1882 18.677 16.6334C18.3942 16.9527 18.3918 17.361 18.6819 17.6409C18.9751 17.9238 19.4122 17.9346 19.7233 17.6541C21.4191 16.1255 22.2827 14.2364 22.329 12.0608Z" fill="white" stroke="white" stroke-width="0.8" stroke-linejoin="bevel"/>
</svg>
