<svg width="13" height="15" viewBox="0 0 13 15" fill="none" xmlns="http://www.w3.org/2000/svg">
<path d="M5.26562 0.401367C6.08143 0.205223 6.8918 0.198696 7.69336 0.389648L8.03613 0.483398C8.80137 0.720419 9.44278 1.13536 9.98926 1.68262L10.2178 1.92578C10.8262 2.60915 11.1926 3.38067 11.2705 4.24805L11.2822 4.42285C11.2987 4.79041 11.3032 5.15701 11.3047 5.52539L11.3086 6.63965V7.07129H11.8516C12.154 7.07379 12.3743 7.16227 12.5166 7.2959C12.657 7.42777 12.7466 7.62693 12.7471 7.90137L12.75 10.9102L12.7441 13.9189C12.7438 14.0213 12.7236 14.1318 12.6885 14.2344L12.6484 14.334V14.335C12.5493 14.5468 12.3497 14.6751 12.0537 14.75H0.952148C0.680516 14.6799 0.514157 14.5607 0.412109 14.416C0.331401 14.3015 0.27878 14.155 0.258789 13.9717L0.25 13.7764C0.26738 11.8421 0.25583 9.90566 0.257812 7.97461L0.262695 7.80176L0.283203 7.66016C0.360116 7.3635 0.588911 7.15177 0.911133 7.0918L1.05469 7.0752C1.17939 7.06987 1.29574 7.07422 1.44727 7.07422H1.69727V4.86426C1.69328 3.85895 1.96831 2.95216 2.59277 2.15918L2.72266 2.00195C3.35838 1.26504 4.1241 0.722916 5.07324 0.452148L5.26562 0.401367ZM6.33887 1.80566L6.05371 1.8291C4.68836 1.99504 3.55761 3.07132 3.39258 4.37305L3.37207 4.63672C3.35462 5.33328 3.3667 6.03467 3.36621 6.72168L3.37598 6.83789L3.39844 7.06348H9.60938L9.62988 6.83496C9.63149 6.81741 9.63867 6.75949 9.63867 6.7168C9.63867 6.21984 9.64557 5.71446 9.64062 5.20898L9.63184 4.7041C9.62542 4.48672 9.59715 4.2604 9.54102 4.04102L9.47559 3.8252C9.01436 2.51939 7.75527 1.74435 6.33887 1.80566Z" fill="#57F98E" stroke="#080808" stroke-width="0.5"/>
</svg>
