<svg width="13" height="18" viewBox="0 0 13 18" fill="none" xmlns="http://www.w3.org/2000/svg">
<path d="M5.59277 0.335938C7.92254 -0.0931657 9.90902 1.12613 10.8535 3.12305L10.9414 3.31934C11.1687 3.84996 11.2793 4.41456 11.2979 5.00098L11.2998 5.25391C11.297 5.49223 11.1602 5.66725 10.9805 5.71973L10.9014 5.73438C10.6902 5.75268 10.4754 5.75773 10.2617 5.74902L10.0479 5.73535C9.86562 5.72081 9.71535 5.59683 9.66504 5.39941L9.64941 5.30957C9.61889 4.98474 9.59591 4.62316 9.49609 4.2666L9.44824 4.11426C8.99755 2.81887 7.70898 1.96133 6.3877 1.99805L6.12305 2.01758C4.88516 2.16598 3.80767 3.15738 3.48633 4.32227L3.43262 4.55762C3.40053 4.73166 3.37977 4.90948 3.37109 5.08691L3.36621 5.26367C3.36027 6.47121 3.36376 7.67977 3.36426 8.88574L3.37207 9.01465L3.38672 9.24902H3.81738L11.8223 9.24805C12.0292 9.24782 12.196 9.28753 12.3281 9.36328C12.4255 9.41911 12.5136 9.49914 12.5879 9.61328L12.6572 9.73926V9.74023C12.699 9.82843 12.7269 9.93706 12.7383 10.0479L12.7441 10.1582C12.7516 12.3839 12.751 14.6102 12.748 16.8359L12.7363 17.0078C12.7133 17.1697 12.6574 17.3034 12.5781 17.4102C12.499 17.5167 12.3894 17.6058 12.2471 17.6709L12.0928 17.7275C12.0699 17.7342 12.05 17.7428 12.0352 17.749H0.947266C0.700257 17.6779 0.517018 17.5664 0.40625 17.3818L0.361328 17.2939C0.312926 17.1813 0.278102 17.0564 0.263672 16.9365L0.256836 16.8184L0.25 13.4971C0.249629 12.3901 0.250717 11.283 0.251953 10.1758L0.256836 10.0684C0.277238 9.82504 0.365353 9.63503 0.493164 9.50195C0.620547 9.36941 0.800837 9.27886 1.0293 9.25586L1.13086 9.25H1.69727V8.77734C1.69912 7.83882 1.69238 6.90551 1.69824 5.97266L1.70996 5.03906C1.732 3.799 2.17946 2.74552 2.98438 1.85352L3.14941 1.67773C3.75364 1.06096 4.44674 0.630077 5.24414 0.415039L5.59277 0.335938Z" fill="#57F98E" stroke="#080808" stroke-width="0.5"/>
</svg>
