<svg width="225" height="37" viewBox="0 0 225 37" fill="none" xmlns="http://www.w3.org/2000/svg">
<g clip-path="url(#clip0_309_586)">
<path d="M5.75586 36.0259L0.25 0.681641H14.4735L15.9433 12.5845L18.144 0.681641H26.4028L28.6035 12.5845L30.0734 0.681641H44.2969L38.791 36.0299H24.5675L22.2734 25.6649L19.9793 36.0299H5.75586V36.0259Z" fill="white"/>
<path fill-rule="evenodd" clip-rule="evenodd" d="M14.4735 0.681641H0.25L5.75586 36.0259V36.0299H19.9793L22.2734 25.6649L24.5675 36.0299H38.791L44.2969 0.681641H30.0734L28.6035 12.5845L26.4028 0.681641H18.144L15.9433 12.5845L14.4735 0.681641ZM18.8986 1.56364L16.832 12.7413L15.0468 12.6902L13.6728 1.56364H1.30081L6.5325 35.1479H19.2507L21.3908 25.4785H23.1561L25.2962 35.1479H38.015L43.2461 1.56364H30.874L29.5001 12.6902L27.7149 12.7413L25.6483 1.56364H18.8986Z" fill="black"/>
<path d="M58.0654 36.0259H41.5479L52.5596 0.681641H68.1595L79.1712 36.0299H62.6536L60.3595 28.6967L58.0654 36.0299V36.0259ZM55.1298 17.1983L54.3055 18.4198C57.7934 20.0499 62.4709 20.4584 66.8318 20.4584V19.1007C62.4709 19.1007 58.2969 18.556 55.1298 17.1983Z" fill="#57F98E"/>
<path fill-rule="evenodd" clip-rule="evenodd" d="M58.0654 36.0299L60.3595 28.6967L62.6536 36.0299H79.1712L68.1595 0.681641H52.5596L41.5479 36.0259H58.0667L58.0654 36.0299ZM42.7665 35.1439H57.3984L60.3595 25.6784L63.322 35.1479H77.9526L67.4904 1.56364H53.2287L42.7665 35.1439ZM54.7951 16.0916L55.4927 16.3907C58.4956 17.678 62.5266 18.2187 66.8318 18.2187H67.7348V21.3404H66.8318C62.4497 21.3404 57.5975 20.9361 53.9158 19.2155L52.9817 18.7789L54.7951 16.0916ZM54.3055 18.4198C54.578 18.5472 54.8578 18.6671 55.1441 18.7799C58.2705 20.012 62.1772 20.4012 65.9287 20.4523C66.2309 20.4565 66.5321 20.4584 66.8318 20.4584V19.1007C62.4709 19.1007 58.2969 18.556 55.1298 17.1983L54.3055 18.4198Z" fill="black"/>
<path d="M77.5715 18.375C77.5715 6.29187 84.9127 0 96.704 0C102.348 0 108.085 0.997248 111.756 3.16796V15.7958C104.642 15.7958 101.43 15.2511 94.686 13.7572V23.986H96.2939V15.8839C101.203 16.8811 106.343 17.1495 111.756 17.1495V33.1255C107.444 35.933 101.479 36.746 94.8687 36.746C84.9127 36.746 77.5715 30.5022 77.5715 18.371V18.375Z" fill="white"/>
<path fill-rule="evenodd" clip-rule="evenodd" d="M95.589 13.9561C101.453 15.2387 104.667 15.749 110.853 15.7927C111.147 15.7947 111.448 15.7958 111.756 15.7958V3.16796C108.085 0.997248 102.348 0 96.704 0C84.914 0 77.5732 6.29049 77.5715 18.371C77.5715 18.3717 77.5715 18.3723 77.5715 18.373C77.5715 18.3737 77.5715 18.3743 77.5715 18.375C77.5731 30.5036 84.9138 36.746 94.8687 36.746C101.479 36.746 107.444 35.933 111.756 33.1255V17.1495C106.674 17.1495 101.832 16.9129 97.1969 16.0587C96.895 16.0031 96.594 15.9449 96.2939 15.8839V23.986H94.686V13.7572C94.9941 13.8255 95.2949 13.8917 95.589 13.9561ZM97.1969 16.956V24.868H93.783V12.6528L94.8857 12.8971C101.294 14.3164 104.447 14.8652 110.853 14.9107V3.67639C107.37 1.79432 102.053 0.882 96.704 0.882C90.9666 0.882 86.4338 2.41121 83.3393 5.29451C80.2521 8.17104 78.475 12.5086 78.4746 18.373C78.475 24.2628 80.2538 28.6149 83.1324 31.4912C86.0114 34.3679 90.0857 35.864 94.8687 35.864C101.23 35.864 106.804 35.0989 110.853 32.6442V18.0289C106.131 18.0016 101.582 17.7495 97.1969 16.956Z" fill="black"/>
<path d="M118.5 36.0259L112.994 0.681641H127.218L128.687 12.5845L130.888 0.681641H139.147L141.348 12.5845L142.818 0.681641H157.041L151.535 36.0299H137.312L135.018 25.6649L132.723 36.0299H118.5V36.0259Z" fill="white"/>
<path fill-rule="evenodd" clip-rule="evenodd" d="M127.218 0.681641H112.994L118.5 36.0259V36.0299H132.723L135.018 25.6649L137.312 36.0299H151.535L157.041 0.681641H142.818L141.348 12.5845L139.147 0.681641H130.888L128.687 12.5845L127.218 0.681641ZM131.643 1.56364L129.576 12.7413L127.791 12.6902L126.417 1.56364H114.045L119.277 35.1479H131.995L134.135 25.4785H135.9L138.04 35.1479H150.759L155.99 1.56364H143.618L142.244 12.6902L140.459 12.7413L138.392 1.56364H131.643Z" fill="black"/>
<path d="M170.814 36.0259H154.296L165.308 0.681641H180.908L191.92 36.0299H175.402L173.108 28.6967L170.814 36.0299V36.0259ZM167.878 17.1983L167.054 18.4198C170.542 20.0499 175.224 20.4584 179.58 20.4584V19.1007C175.219 19.1007 171.045 18.556 167.878 17.1983Z" fill="white"/>
<path fill-rule="evenodd" clip-rule="evenodd" d="M170.814 36.0299L173.108 28.6967L175.402 36.0299H191.92L180.908 0.681641H165.308L154.296 36.0259H170.815L170.814 36.0299ZM155.515 35.1439H170.147L173.108 25.6784L176.07 35.1479H190.701L180.239 1.56364H165.977L155.515 35.1439ZM167.544 16.0916L168.241 16.3907C171.244 17.678 175.275 18.2187 179.58 18.2187H180.483V21.3404H179.58C175.202 21.3404 170.346 20.9361 166.664 19.2155L165.73 18.7789L167.544 16.0916ZM167.054 18.4198C167.327 18.5472 167.606 18.6671 167.893 18.7799C171.019 20.0119 174.928 20.4011 178.677 20.4523C178.979 20.4565 179.281 20.4584 179.58 20.4584V19.1007C175.219 19.1007 171.045 18.556 167.878 17.1983L167.054 18.4198Z" fill="black"/>
<path d="M190.316 18.375C190.316 6.29187 197.657 0 209.448 0C215.092 0 220.83 0.997248 224.5 3.16796V15.7958C217.386 15.7958 214.175 15.2511 207.43 13.7572V23.986H209.038V15.8839C213.947 16.8811 219.088 17.1495 224.5 17.1495V33.1255C220.188 35.933 214.223 36.746 207.613 36.746C197.657 36.746 190.316 30.5022 190.316 18.371V18.375Z" fill="white"/>
<path fill-rule="evenodd" clip-rule="evenodd" d="M208.333 13.9561C214.197 15.2387 217.412 15.749 223.597 15.7927C223.891 15.7947 224.192 15.7958 224.5 15.7958V3.16796C220.83 0.997248 215.092 0 209.448 0C197.658 0 190.318 6.29049 190.316 18.371C190.316 18.3717 190.316 18.3723 190.316 18.373C190.316 18.3737 190.316 18.3743 190.316 18.375C190.318 30.5036 197.658 36.746 207.613 36.746C214.223 36.746 220.188 35.933 224.5 33.1255V17.1495C219.419 17.1495 214.577 16.9129 209.941 16.0587C209.639 16.0031 209.338 15.9449 209.038 15.8839V23.986H207.43V13.7572C207.739 13.8255 208.039 13.8917 208.333 13.9561ZM209.941 16.956V24.868H206.527V12.6528L207.63 12.8971C214.038 14.3164 217.191 14.8652 223.597 14.9107V3.67639C220.115 1.79432 214.798 0.882 209.448 0.882C203.711 0.882 199.178 2.41121 196.084 5.29451C192.996 8.17104 191.219 12.5086 191.219 18.373C191.219 24.2628 192.998 28.6149 195.877 31.4912C198.756 34.3679 202.83 35.864 207.613 35.864C213.975 35.864 219.548 35.0989 223.597 32.6442V18.0289C218.876 18.0016 214.327 17.7495 209.941 16.956Z" fill="black"/>
</g>
<defs>
<clipPath id="clip0_309_586">
<rect width="224.25" height="36.75" fill="white" transform="translate(0.25)"/>
</clipPath>
</defs>
</svg>
